<?xml version="1.0" encoding="utf-8"?>
<!-- Generator: Adobe Illustrator 24.1.1, SVG Export Plug-In . SVG Version: 6.00 Build 0)  -->
<svg version="1.1" id="Layer_1" xmlns="http://www.w3.org/2000/svg" xmlns:xlink="http://www.w3.org/1999/xlink" x="0px" y="0px"
	 viewBox="0 0 1920 1080" style="enable-background:new 0 0 1920 1080;" xml:space="preserve">
<style type="text/css">
	.st0{fill:#FA0303;}
	.st1{font-family:'Mistral';}
	.st2{font-size:229.3012px;}
</style>
<g>
	<g>
		<g>
			<path class="st0" d="M1243.2,446.2c0,0-3.4,5-10.4,9.2c0,0,5.1-43.3-28.2-50.8c8.5,31.4-10.9,40.2-18,23.6
				c-11.8,15.8-2.8,29.6-2.8,29.6c-4.8,0.7-8.9-4.6-8.9-4.6c0,0.7-0.1,1.3-0.1,2c0,16.8,11.9,30.9,27.8,34.1
				c-4.9-2.5-8.3-7.7-8.3-13.6c0-4.5,2-8.6,5.1-11.4c5.9,8,14.3-4.1,7.8-13c0,0,17.7,2.2,17.7,24.4c0,5.9-3.4,11-8.3,13.6
				c15.9-3.2,27.8-17.3,27.8-34.1C1244.4,452,1244,449,1243.2,446.2z"/>
		</g>
	</g>
	<text transform="matrix(1 0 0 1 675.597 602.7012)" class="st0 st1 st2">BLAZE</text>
</g>
</svg>
