<?xml version="1.0" encoding="UTF-8" standalone="no"?>
<!-- Generator: Adobe Illustrator 24.1.1, SVG Export Plug-In . SVG Version: 6.00 Build 0)  -->

<svg
   xmlns:dc="http://purl.org/dc/elements/1.1/"
   xmlns:cc="http://creativecommons.org/ns#"
   xmlns:rdf="http://www.w3.org/1999/02/22-rdf-syntax-ns#"
   xmlns:svg="http://www.w3.org/2000/svg"
   xmlns="http://www.w3.org/2000/svg"
   xmlns:sodipodi="http://sodipodi.sourceforge.net/DTD/sodipodi-0.dtd"
   xmlns:inkscape="http://www.inkscape.org/namespaces/inkscape"
   version="1.1"
   id="Layer_1"
   x="0px"
   y="0px"
   viewBox="0 0 1920 1080"
   style="enable-background:new 0 0 1920 1080;"
   xml:space="preserve"
   sodipodi:docname="brand.svg"
   inkscape:version="0.92.4 (5da689c313, 2019-01-14)"><metadata
   id="metadata19"><rdf:RDF><cc:Work
       rdf:about=""><dc:format>image/svg+xml</dc:format><dc:type
         rdf:resource="http://purl.org/dc/dcmitype/StillImage" /><dc:title></dc:title></cc:Work></rdf:RDF></metadata><defs
   id="defs17" /><sodipodi:namedview
   pagecolor="#ffffff"
   bordercolor="#666666"
   borderopacity="1"
   objecttolerance="10"
   gridtolerance="10"
   guidetolerance="10"
   inkscape:pageopacity="0"
   inkscape:pageshadow="2"
   inkscape:window-width="1920"
   inkscape:window-height="1001"
   id="namedview15"
   showgrid="false"
   inkscape:zoom="0.6234375"
   inkscape:cx="960"
   inkscape:cy="540"
   inkscape:window-x="-9"
   inkscape:window-y="-9"
   inkscape:window-maximized="1"
   inkscape:current-layer="Layer_1" />
<style
   type="text/css"
   id="style2">
	.st0{fill:#FA0303;}
	.st1{font-family:'Mistral';}
	.st2{font-size:229.3012px;}
</style>
<g
   id="g12"
   transform="matrix(3.3551423,0,0,5.0188055,-2260.263,-2023.8032)">
	<g
   id="g8">
		<g
   id="g6">
			<path
   class="st0"
   d="m 1243.2,446.2 c 0,0 -3.4,5 -10.4,9.2 0,0 5.1,-43.3 -28.2,-50.8 8.5,31.4 -10.9,40.2 -18,23.6 -11.8,15.8 -2.8,29.6 -2.8,29.6 -4.8,0.7 -8.9,-4.6 -8.9,-4.6 0,0.7 -0.1,1.3 -0.1,2 0,16.8 11.9,30.9 27.8,34.1 -4.9,-2.5 -8.3,-7.7 -8.3,-13.6 0,-4.5 2,-8.6 5.1,-11.4 5.9,8 14.3,-4.1 7.8,-13 0,0 17.7,2.2 17.7,24.4 0,5.9 -3.4,11 -8.3,13.6 15.9,-3.2 27.8,-17.3 27.8,-34.1 0,-3.2 -0.4,-6.2 -1.2,-9 z"
   id="path4"
   inkscape:connector-curvature="0"
   style="fill:#fa0303" />
		</g>
	</g>
	<text
   transform="translate(675.597,602.7012)"
   class="st0 st1 st2"
   id="text10"
   style="font-size:229.30119324px;font-family:Mistral;fill:#fa0303">BLAZE</text>

</g>
</svg>